<svg xmlns="http://www.w3.org/2000/svg"
shape-rendering="geometricPrecision"
width="4000" height="4000" viewBox="0 0 1024 1024">
  <metadata>null</metadata>

<path d="
M 104.483 752.607
C 106.24 740.193 110.141 728.809 119.153 719.683
C 138.359 700.233 174.823 699.208 193.641 719.62
C 205.105 732.054 208.02 748.517 206.874 764.868
C 188.954 764.278 170.93 764.776 153 764.772
C 147 764.771 141 764.779 135.001 764.782
C 132.063 764.784 128.684 764.338 125.823 765.038
C 126.442 766.747 126.433 768.717 126.98 770.51
C 128.311 774.872 131.017 779.018 134.224 782.221
C 143.242 791.227 156.977 792.502 168.87 789.794
C 171.59 789.175 174.504 788.642 177.052 787.47
C 181.766 785.3 185.619 782.588 189.53 779.23
C 190.358 779.216 191.306 780.883 191.857 781.5
C 194.125 784.037 196.401 786.569 198.685 789.092
C 199.089 789.538 201.511 791.551 201.381 791.806
C 199.716 794.812 196.355 797.285 193.593 799.216
C 186.662 804.061 179.655 807.135 171.356 808.841
C 152.401 812.739 130.138 807.873 117.05 792.786
C 111.615 786.521 107.77 778.837 105.772 770.817
C 104.315 764.968 103.94 758.603 104.483 752.607 Z
M 126.422 747.089
C 126.312 747.867 126.144 748.714 126.463 749.441
C 131.825 748.741 137.595 749.274 143.005 749.254
C 157.376 749.202 171.926 749.911 186.276 749.199
C 185.271 743.128 183.819 737.494 179.637 732.755
C 170.271 722.141 151.849 720.813 140.021 727.925
C 132.794 732.27 128.651 739.214 126.422 747.089 Z"
opacity="1" fill="rgb(6,6,7)" fill-rule="evenodd" />
<path d="
M 293.397 438.806
C 292.256 438.615 290.743 439.04 289.557 439.074
C 285.88 439.179 282.204 439.447 278.532 439.566
C 267.237 439.932 255.948 440.394 244.652 440.735
C 239.102 440.902 233.553 441.263 228.012 441.563
C 225.104 441.721 221.644 441.463 218.877 442.451
C 217.419 439.384 216.762 435.88 215.733 432.645
C 213.037 424.172 210.891 415.519 209.324 406.764
C 201.606 363.64 208.466 316.618 228.64 277.69
C 234.242 266.881 240.392 256.193 247.803 246.505
C 249.407 244.409 250.982 242.252 252.499 240.093
C 253.282 238.977 254.154 237.257 255.352 236.577
C 276.772 238.468 298.176 240.683 319.569 242.822
C 325.775 243.442 331.965 244.291 338.179 244.859
C 341.612 245.173 345.882 245.061 349.12 246.29
C 349.391 246.594 348.5 247.03 348.253 247.183
C 346.87 248.037 345.529 249.003 344.192 249.931
C 340.912 252.208 337.618 254.469 334.55 257.032
C 325.342 264.724 316.633 272.728 308.925 281.942
C 293.206 300.734 282.61 324.792 278.87 348.973
C 277.433 358.263 277.129 367.67 277.245 377.061
C 321.127 377.947 365.111 377.206 409.005 377.184
C 422.505 377.177 436.006 377.109 449.506 377.149
C 455.925 377.168 462.725 376.536 469.098 377.271
C 470.724 377.907 472.156 380.381 473.316 381.674
C 476.701 385.445 480.09 389.259 483.362 393.125
C 492.042 403.384 500.943 413.479 509.85 423.54
C 512.897 426.981 516.008 430.419 518.918 433.978
C 519.985 435.282 521.783 436.752 522.491 438.259
C 471.294 438.393 420.09 438.345 368.891 438.466
C 352.463 438.506 336.036 438.492 319.608 438.529
C 310.963 438.549 302 437.949 293.397 438.806 Z"
opacity="1" fill="rgb(203,203,203)" fill-rule="evenodd" />
<path d="
M 218.877 442.451
C 221.644 441.463 225.104 441.721 228.012 441.563
C 233.553 441.263 239.102 440.902 244.652 440.735
C 255.948 440.394 267.237 439.932 278.532 439.566
C 282.204 439.447 285.88 439.179 289.557 439.074
C 290.743 439.04 292.256 438.615 293.397 438.806
C 293.872 443.94 295.451 449.355 296.87 454.31
C 300.28 466.22 304.823 477.385 310.916 488.175
C 334.876 530.61 378.11 561.667 426.217 570.077
C 440.327 572.544 455.041 573.098 469.29 571.613
C 474.559 571.064 479.803 570.395 485.017 569.446
C 487.165 569.055 490.265 567.706 492.402 568.012
C 495.916 571.786 498.477 576.431 501.684 580.466
C 510.11 591.064 518.147 602.067 526.2 612.951
C 529.224 617.04 532.265 621.116 535.293 625.203
C 536.181 626.403 538.589 628.51 538.864 629.886
C 536.274 631.102 533.296 631.739 530.561 632.581
C 525.565 634.119 520.573 635.569 515.473 636.73
C 496.954 640.949 477.908 643.25 458.908 643.275
C 436.033 643.306 413.203 640.747 391.137 634.567
C 327.795 616.826 274.178 570.673 243.299 513.114
C 235.755 499.052 229.66 484.471 224.971 469.224
C 222.31 460.572 219.753 451.494 218.877 442.451 Z"
opacity="1" fill="rgb(130,173,197)" fill-rule="evenodd" />
<path d="
M 222.293 807.689
C 231.016 794.64 240.848 782.216 250.036 769.477
C 252.481 766.088 255.024 762.756 257.385 759.306
C 258.037 758.353 259.848 756.706 259.92 755.511
C 259.989 754.366 258.478 752.859 257.9 751.943
C 255.85 748.695 253.541 745.621 251.406 742.433
C 243.282 730.302 234.031 718.9 226.084 706.665
C 234.091 706.79 242.111 706.66 250.121 706.697
C 252.906 709.1 254.767 713.31 256.824 716.338
C 262.281 724.37 267.74 732.411 273.134 740.48
C 274.066 739.898 274.768 738.375 275.396 737.47
C 276.802 735.44 278.25 733.449 279.637 731.403
C 283.237 726.094 287.071 720.947 290.644 715.623
C 292.524 712.82 294.233 709.45 296.558 707.016
C 304.675 706.472 312.91 707.342 321.047 706.865
C 320.244 708.527 318.729 709.901 317.629 711.379
C 315.628 714.068 313.608 716.746 311.609 719.436
C 305.555 727.58 299.623 735.81 293.783 744.11
C 291.404 747.491 288.389 750.977 286.505 754.641
C 286.484 755.818 287.647 757.057 288.292 758.02
C 290.004 760.577 291.849 763.041 293.575 765.588
C 300.344 775.572 307.271 785.459 314.197 795.336
C 316.436 798.529 318.723 801.693 320.926 804.911
C 321.208 805.324 323.092 807.575 322.936 807.704
C 318.559 807.959 313.92 807.435 309.504 807.437
C 305.976 807.439 302.015 807.972 298.538 807.454
C 297.6 806.908 297.063 805.708 296.482 804.823
C 295.287 803.004 294.145 801.148 292.948 799.329
C 288.5 792.575 283.944 785.882 279.39 779.199
C 277.789 776.849 276.286 774.433 274.658 772.101
C 274.268 771.542 273.676 770.087 273.035 770.11
C 271.696 773.306 268.687 776.44 266.679 779.298
C 262.713 784.944 258.816 790.667 254.967 796.395
C 253.133 799.124 251.375 801.937 249.446 804.599
C 248.774 805.527 248.184 806.92 247.248 807.585
C 242.727 807.938 238.043 807.579 233.504 807.591
C 229.81 807.601 225.964 808.017 222.293 807.689 Z"
opacity="1" fill="rgb(8,8,9)" fill-rule="evenodd" />
<path d="
M 251.478 890.617
C 251.692 888.877 251.607 886.984 251.547 885.236
C 253.123 884.677 254.85 884.882 256.5 884.87
C 259.973 884.845 263.796 885.26 267.229 884.76
C 266.718 881.004 267.231 876.801 267.236 873
C 267.242 868.037 266.777 862.824 267.275 857.892
C 270.675 857.817 274.6 857.365 277.952 857.949
C 277.675 866.823 278.54 875.774 278.222 884.655
C 280.024 885.038 282.16 884.766 284.003 884.772
C 287.835 884.786 291.67 884.801 295.503 884.787
C 297.182 884.781 299.049 884.508 300.695 884.838
C 300.645 887.548 300.181 891.122 300.76 893.747
C 299.063 894.416 295.877 893.725 294.001 893.709
C 288.803 893.666 283.467 893.409 278.289 893.849
C 277.696 899.129 278.167 904.689 278.167 910
C 278.167 919.832 278.129 929.664 278.092 939.496
C 278.07 945.178 276.961 952.516 281.899 956.617
C 285.118 959.291 290.306 960.127 294.389 959.53
C 296.384 959.238 299.459 957.838 301.415 958.42
C 301.394 961.578 301.887 965.116 301.314 968.227
C 291.417 971.111 278.784 970.706 272.233 961.556
C 270.906 959.702 269.786 957.652 269.01 955.504
C 266.246 947.854 267.359 938.999 267.376 930.997
C 267.395 922.55 267.332 914.103 267.347 905.656
C 267.354 901.851 267.003 897.888 267.334 894.105
C 262.162 893.879 256.646 894.496 251.53 893.784
C 251.435 892.721 251.427 891.683 251.478 890.617 Z"
opacity="1" fill="rgb(118,159,192)" fill-rule="evenodd" />
<path d="
M 266.951 222.104
C 269.18 210.877 270.959 199.832 274.635 188.921
C 282.414 165.834 295.637 144.165 312.328 126.463
C 317.604 120.867 323.121 115.573 329.076 110.707
C 331.118 109.037 333.223 106.939 335.547 105.686
C 339.091 108.696 342.191 112.435 345.377 115.817
C 352.023 122.875 358.67 129.924 365.307 136.99
C 384.81 157.752 404.379 178.446 423.966 199.132
C 433.155 208.836 442.395 218.507 451.714 228.089
C 454.543 230.999 457.327 233.951 460.144 236.871
C 461.46 238.234 463.681 239.868 464.522 241.548
C 450.289 239.992 435.865 239.385 421.589 238.032
C 370.069 233.147 318.388 229.354 266.972 223.507
C 266.877 223.019 266.904 222.6 266.951 222.104 Z
M 313.868 160.514
C 313.691 161.179 313.803 160.807 313.509 161.624
C 318.032 162.103 323.04 160.771 327.46 162.016
C 329.764 162.666 331.848 164.178 333.637 165.719
C 334.985 166.88 335.943 168.279 336.529 169.961
C 334.945 170.456 332.215 169.958 330.505 169.963
C 326.007 169.977 321.494 170.052 316.999 169.856
C 315.619 171.091 314.321 173.117 313.612 174.812
C 313.899 175.901 318.128 175.448 319.195 175.444
C 323.631 175.427 328.066 175.394 332.501 175.434
C 333.853 175.446 336.461 174.935 337.474 175.965
C 337.011 181.363 333.44 185.463 328.159 186.726
C 326.437 187.137 324.55 186.976 322.789 187.042
C 320.75 187.118 317.048 186.199 315.375 187.409
C 315.37 189.105 314.799 192.39 315.53 193.943
C 316.782 196.605 320.129 198.947 322.021 201.213
C 324.86 204.612 327.858 207.869 330.755 211.217
C 332.706 213.471 334.535 216.153 336.819 218.074
C 338.981 219.022 342.748 218.312 345.11 218.344
C 345.843 218.354 346.834 218.73 347.522 218.462
C 339.447 209.686 331.636 200.659 323.57 191.87
C 326.065 190.757 329.358 190.957 332.05 190.21
C 339.299 188.196 344.368 183.099 345.779 175.634
C 348.145 175.492 350.985 176.277 353.279 175.703
C 354.167 174.566 354.717 173.236 355.484 172.024
C 355.633 171.787 356.881 170.013 356.629 170.011
C 352.859 170.157 349.077 170.101 345.305 170.067
C 344.995 168.425 344.812 167.09 343.954 165.616
C 343.271 164.441 341.942 163.207 341.651 161.911
C 344.174 161.949 346.713 161.915 349.244 161.945
C 350.521 161.96 352.089 162.149 353.312 161.745
C 354.629 160.23 356.696 157.559 357.246 155.626
C 348.153 154.751 338.707 155.761 329.565 155.528
C 326.545 155.451 323.527 155.45 320.506 155.454
C 319.347 155.456 317.723 155.156 316.657 155.587
C 315.583 157.108 314.632 158.815 313.868 160.514 Z"
opacity="1" fill="rgb(121,168,192)" fill-rule="evenodd" />
<path d="
M 313.868 160.514
C 314.632 158.815 315.583 157.108 316.657 155.587
C 317.723 155.156 319.347 155.456 320.506 155.454
C 323.527 155.45 326.545 155.451 329.565 155.528
C 338.707 155.761 348.153 154.751 357.246 155.626
C 356.696 157.559 354.629 160.23 353.312 161.745
C 352.089 162.149 350.521 161.96 349.244 161.945
C 346.713 161.915 344.174 161.949 341.651 161.911
C 341.942 163.207 343.271 164.441 343.954 165.616
C 344.812 167.09 344.995 168.425 345.305 170.067
C 349.077 170.101 352.859 170.157 356.629 170.011
C 356.881 170.013 355.633 171.787 355.484 172.024
C 354.717 173.236 354.167 174.566 353.279 175.703
C 350.985 176.277 348.145 175.492 345.779 175.634
C 344.368 183.099 339.299 188.196 332.05 190.21
C 329.358 190.957 326.065 190.757 323.57 191.87
C 331.636 200.659 339.447 209.686 347.522 218.462
C 346.834 218.73 345.843 218.354 345.11 218.344
C 342.748 218.312 338.981 219.022 336.819 218.074
C 334.535 216.153 332.706 213.471 330.755 211.217
C 327.858 207.869 324.86 204.612 322.021 201.213
C 320.129 198.947 316.782 196.605 315.53 193.943
C 314.799 192.39 315.37 189.105 315.375 187.409
C 317.048 186.199 320.75 187.118 322.789 187.042
C 324.55 186.976 326.437 187.137 328.159 186.726
C 333.44 185.463 337.011 181.363 337.474 175.965
C 336.461 174.935 333.853 175.446 332.501 175.434
C 328.066 175.394 323.631 175.427 319.195 175.444
C 318.128 175.448 313.899 175.901 313.612 174.812
C 314.321 173.117 315.619 171.091 316.999 169.856
C 321.494 170.052 326.007 169.977 330.505 169.963
C 332.215 169.958 334.945 170.456 336.529 169.961
C 335.943 168.279 334.985 166.88 333.637 165.719
C 331.848 164.178 329.764 162.666 327.46 162.016
C 323.04 160.771 318.032 162.103 313.509 161.624
C 313.803 160.807 313.691 161.179 313.868 160.514 Z"
opacity="1" fill="rgb(2,2,2)" fill-rule="evenodd" />
<path d="
M 320.972 890.118
C 321.156 888.355 321.113 886.488 321.087 884.716
C 324.313 884.518 327.574 884.479 330.797 884.736
C 331.215 890.995 330.435 897.627 331.7 903.79
C 332.415 903.655 333.103 901.605 333.431 900.997
C 334.924 898.241 336.847 895.694 338.883 893.318
C 344.609 886.636 353.783 882.349 362.648 883.185
C 363.19 883.935 362.912 885.564 362.91 886.493
C 362.906 888.991 362.739 891.573 362.964 894.058
C 362.479 894.316 361.331 894.001 360.796 893.971
C 359.205 893.879 357.622 893.976 356.039 894.139
C 351.577 894.597 347.382 896.536 343.966 899.434
C 332.85 908.867 331.732 924.011 331.753 937.5
C 331.77 947.898 332.03 958.322 331.827 968.715
C 328.282 968.722 324.711 968.513 321.169 968.647
C 320.751 954.285 321.094 939.862 321.049 925.493
C 321.011 913.723 320.497 901.882 320.972 890.118 Z"
opacity="1" fill="rgb(117,159,193)" fill-rule="evenodd" />
<path d="
M 345.806 95.559
C 372.945 72.539 409.245 57.934 444.434 53.565
C 452.459 52.569 460.443 51.88 468.534 51.622
C 470.686 51.553 472.868 51.455 475.009 51.547
C 475.785 51.581 476.828 51.409 477.472 51.854
C 477.32 55.365 477.652 58.973 477.651 62.5
C 477.648 72.5 477.713 82.5 477.715 92.5
C 477.723 122.333 477.684 152.166 477.699 181.999
C 477.705 194.499 477.723 206.999 477.751 219.499
C 477.759 223.164 477.74 226.83 477.799 230.494
C 477.823 232 478.323 234.042 477.949 235.486
C 476.367 234.329 475.127 232.615 473.799 231.189
C 471.425 228.641 469.012 226.133 466.602 223.62
C 458.817 215.504 450.878 207.499 443.277 199.212
C 422.999 177.104 401.828 155.77 381.299 133.89
C 372.575 124.591 364.007 115.144 355.135 105.979
C 351.979 102.718 349.142 98.844 345.708 95.892
C 345.74 95.781 345.773 95.67 345.806 95.559 Z
M 410.957 115.612
C 410.865 116.513 410.256 118.793 410.899 119.453
C 413.841 119.392 416.783 119.748 419.722 119.627
C 419.444 125.02 419.172 129.845 415.183 134.009
C 414.099 135.14 412.708 135.899 411.443 136.803
C 412.566 139.329 413.264 142.037 414.536 144.505
C 418.021 143.142 420.9 141.299 424.778 141.278
C 430.015 141.25 434.932 143.505 440.029 144.376
C 443.685 145 447.253 144.636 450.813 143.727
C 451.085 143.139 450.855 142.276 450.744 141.646
C 450.421 139.796 450.365 137.124 449.39 135.5
C 447.379 136 445.284 136.535 443.194 136.457
C 438.933 136.298 434.898 134.715 430.669 134.348
C 428.098 134.125 425.486 135.304 423.052 135.072
C 425.11 132.202 426.955 129.789 427.64 126.196
C 428.038 124.109 427.416 121.54 428.073 119.585
C 432.439 119.535 436.88 119.882 441.235 119.588
C 440.738 117.532 441.251 114.776 441.18 112.638
C 436.275 112.19 431.17 113.039 426.229 112.743
C 425.004 108.102 423.15 102.797 425.868 98.29
C 429.861 91.67 439.388 95.321 441.602 101.36
C 444.024 100.768 446.459 99.236 448.888 98.465
C 448.609 96.634 446.998 94.3 445.836 92.905
C 439.945 85.83 427.977 84.808 420.983 90.849
C 416.058 95.102 415.013 101.562 415.99 107.726
C 416.266 109.47 417.112 111.038 417.433 112.743
C 415.342 112.848 413.255 112.654 411.166 112.666
C 411.109 113.648 411.067 114.634 410.957 115.612 Z"
opacity="1" fill="rgb(135,176,199)" fill-rule="evenodd" />
<path d="
M 347.784 707.212
C 350.282 706.773 352.978 707.107 355.508 707.12
C 359.229 707.139 363.059 706.871 366.761 707.275
C 367.522 708.589 367.198 710.812 367.216 712.298
C 367.259 715.928 366.998 719.695 367.678 723.277
C 368.675 722.992 369.555 721.052 370.179 720.266
C 372.031 717.935 374.149 715.833 376.452 713.949
C 382.231 709.223 389.502 706.704 396.813 705.572
C 401.614 704.829 406.26 704.966 411.048 705.698
C 414.843 706.279 418.484 707.469 422.014 708.949
C 445.423 718.759 454.33 746.465 450.199 769.959
C 449.651 773.076 448.422 775.988 447.314 778.926
C 444.926 785.262 441.412 791.419 436.645 796.276
C 425.583 807.545 408.804 811.798 393.58 808.67
C 387.175 807.354 380.41 804.454 375.6 799.956
C 373.494 797.987 371.756 795.663 370.241 793.219
C 369.868 792.617 368.791 791.265 368.138 792.107
C 368.413 799.38 368.106 806.717 368.122 813.998
C 368.145 824.439 368.384 834.901 368.181 845.338
C 366.778 845.651 364.959 845.378 363.506 845.383
C 360.339 845.395 357.172 845.427 354.004 845.435
C 352.231 845.439 349.586 845.934 347.955 845.381
C 347.528 833.444 348.075 821.439 348.092 809.496
C 348.125 787.227 347.983 764.957 347.959 742.69
C 347.947 730.926 348.643 718.948 347.784 707.212 Z
M 367.973 756.128
C 367.465 768.728 373.188 782.679 385.233 788.144
C 396.515 793.262 412.123 791.333 421.198 782.614
C 426.872 777.163 429.928 768.994 430.273 761.228
C 430.745 750.601 428.499 739.772 420.563 732.086
C 408.821 720.714 388.623 721.275 377.203 732.806
C 370.935 739.134 368.324 747.427 367.973 756.128 Z"
opacity="1" fill="rgb(7,8,9)" fill-rule="evenodd" />
<path d="
M 373.465 920.597
C 374.674 913.765 376.257 907.384 380.176 901.523
C 390.496 886.09 410.703 878.755 428.258 885.481
C 432.902 887.26 437.59 889.872 441.111 893.435
C 443.766 896.12 445.552 899.529 448.12 902.273
C 448.241 902.296 448.183 900.934 448.189 900.786
C 448.246 899.358 448.247 897.929 448.264 896.499
C 448.309 892.601 448.331 888.71 448.441 884.814
C 451.708 884.732 455.306 884.37 458.549 884.81
C 458.874 891.844 458.611 898.952 458.616 905.998
C 458.626 918.832 458.656 931.666 458.703 944.501
C 458.723 949.833 458.718 955.166 458.709 960.499
C 458.704 963.124 458.292 966.122 458.748 968.706
C 455.419 968.835 452.056 968.428 448.73 968.66
C 448.222 967.587 448.603 965.736 448.594 964.53
C 448.571 961.314 448.768 958.048 448.471 954.842
C 448.39 953.97 449.04 951.133 448.111 950.881
C 445.872 954.934 442.572 959.303 438.952 962.21
C 424.156 974.092 402.753 972.72 388.521 960.784
C 376.9 951.037 371.73 935.435 373.465 920.597 Z
M 383.93 922.605
C 381.816 941.639 396.046 961.119 416.137 960.714
C 419.563 960.645 422.93 959.988 426.145 958.796
C 429.619 957.508 432.789 955.64 435.586 953.211
C 438.487 950.692 441.063 948.001 443.018 944.656
C 445.467 940.463 446.886 935.71 447.425 930.897
C 448.035 925.453 447.644 919.648 445.76 914.483
C 443.882 909.335 440.564 903.975 436.508 900.263
C 425.681 890.352 407.714 890.28 396.391 899.381
C 389.392 905.006 384.919 913.695 383.93 922.605 Z"
opacity="1" fill="rgb(114,159,193)" fill-rule="evenodd" />
<path d="
M 410.957 115.612
C 411.067 114.634 411.109 113.648 411.166 112.666
C 413.255 112.654 415.342 112.848 417.433 112.743
C 417.112 111.038 416.266 109.47 415.99 107.726
C 415.013 101.562 416.058 95.102 420.983 90.849
C 427.977 84.808 439.945 85.83 445.836 92.905
C 446.998 94.3 448.609 96.634 448.888 98.465
C 446.459 99.236 444.024 100.768 441.602 101.36
C 439.388 95.321 429.861 91.67 425.868 98.29
C 423.15 102.797 425.004 108.102 426.229 112.743
C 431.17 113.039 436.275 112.19 441.18 112.638
C 441.251 114.776 440.738 117.532 441.235 119.588
C 436.88 119.882 432.439 119.535 428.073 119.585
C 427.416 121.54 428.038 124.109 427.64 126.196
C 426.955 129.789 425.11 132.202 423.052 135.072
C 425.486 135.304 428.098 134.125 430.669 134.348
C 434.898 134.715 438.933 136.298 443.194 136.457
C 445.284 136.535 447.379 136 449.39 135.5
C 450.365 137.124 450.421 139.796 450.744 141.646
C 450.855 142.276 451.085 143.139 450.813 143.727
C 447.253 144.636 443.685 145 440.029 144.376
C 434.932 143.505 430.015 141.25 424.778 141.278
C 420.9 141.299 418.021 143.142 414.536 144.505
C 413.264 142.037 412.566 139.329 411.443 136.803
C 412.708 135.899 414.099 135.14 415.183 134.009
C 419.172 129.845 419.444 125.02 419.722 119.627
C 416.783 119.748 413.841 119.392 410.899 119.453
C 410.256 118.793 410.865 116.513 410.957 115.612 Z"
opacity="1" fill="rgb(1,2,3)" fill-rule="evenodd" />
<path d="
M 473.487 756.114
C 473.873 752.389 474.043 748.7 474.893 745.031
C 477.099 735.507 481.474 727.367 488.184 720.251
C 492.048 716.152 496.81 713.239 501.825 710.791
C 520.718 701.569 545.461 703.107 561.193 717.941
C 570.734 726.938 575.997 740.816 576.35 753.786
C 576.424 756.517 576.37 759.262 576.335 761.993
C 576.326 762.673 576.628 764.583 576.097 765.025
C 565.988 765.726 555.642 765.101 545.504 765.083
C 528.47 765.054 511.43 765.252 494.4 765.225
C 494.817 768.314 495.881 771.553 497.251 774.354
C 506.359 792.97 531.543 794.754 548.483 786.755
C 552.33 784.938 555.766 782.307 558.978 779.547
C 560.179 780.17 561.174 781.763 562.137 782.743
C 564.987 785.642 567.418 788.956 570.528 791.59
C 569.328 794.332 566.299 796.66 563.997 798.46
C 557.259 803.726 549.3 807.024 540.98 808.804
C 513.529 814.676 482.101 800.784 475.181 771.969
C 473.938 766.792 473.228 761.447 473.487 756.114 Z
M 495.42 748.085
C 495.358 748.712 495.032 749.411 495.507 749.865
C 497.519 749.398 499.939 749.698 502.01 749.694
C 506.345 749.685 510.679 749.666 515.013 749.639
C 528.42 749.558 541.91 749.243 555.289 749.6
C 554.523 742.808 552.237 736.143 547.212 731.324
C 537.22 721.742 518.593 721.56 507.541 729.481
C 500.851 734.276 497.563 740.34 495.42 748.085 Z"
opacity="1" fill="rgb(7,8,9)" fill-rule="evenodd" />
<path d="
M 479.446 922.604
C 480.875 912.411 484.37 902.545 491.959 895.168
C 507.998 879.577 537.948 878.043 554.074 894.444
C 553.275 896.745 551.739 898.833 550.71 901.053
C 550.405 901.711 550.049 903.064 549.377 903.42
C 547.407 902.255 545.791 900.416 543.842 899.168
C 539.221 896.209 533.953 894.11 528.485 893.469
C 523.352 892.867 518.083 893.161 513.127 894.668
C 506.414 896.709 499.599 901.512 495.678 907.388
C 489.058 917.307 488.364 932.286 493.84 942.873
C 500.263 955.293 514.277 962.002 527.96 960.658
C 533.696 960.095 539.848 957.712 544.684 954.602
C 546.249 953.596 547.46 952.134 549.012 951.124
C 550.921 953.567 552.991 955.988 554.689 958.586
C 554.516 959.21 553.489 959.859 553.011 960.261
C 551.376 961.634 549.588 962.864 547.766 963.974
C 539.708 968.883 529.627 971.364 520.198 970.538
C 512.869 969.895 505.562 968.04 499.237 964.187
C 485.422 955.771 478.158 938.426 479.446 922.604 Z"
opacity="1" fill="rgb(114,160,193)" fill-rule="evenodd" />
<path d="
M 654.422 354.977
C 652.874 355.11 650.621 352.949 649.374 352.143
C 645.36 349.547 641.312 346.996 637.275 344.434
C 626.771 337.769 616.203 331.203 605.674 324.575
C 600.532 321.337 595.661 317.613 590.472 314.476
C 589.721 313.331 588.244 313.628 587.006 313.613
C 583.672 313.571 580.337 313.585 577.003 313.582
C 567.283 313.572 557.569 313.463 547.851 313.466
C 545.187 313.467 542.523 313.484 539.859 313.462
C 538.785 313.453 537.258 313.845 536.288 313.337
C 531.702 308.9 527.696 303.436 523.567 298.561
C 517.539 291.444 511.09 284.68 505.061 277.562
C 500.627 272.327 495.914 267.233 491.244 262.208
C 488.886 259.672 486.13 257.166 484.179 254.306
C 491.4 253.823 498.767 254.171 506.011 254.136
C 520.01 254.068 534.008 254.039 548.007 254.039
C 592.675 254.039 637.344 253.914 682.011 254.078
C 699.178 254.14 716.343 254.186 733.509 254.182
C 741.283 254.18 749.216 254.636 756.97 254.237
C 757.349 274.111 756.928 294.089 756.935 313.959
C 722.768 314.159 688.58 313.784 654.421 313.926
C 654.065 322.259 654.309 330.655 654.324 338.997
C 654.334 344.259 653.919 349.741 654.422 354.977 Z"
opacity="1" fill="rgb(7,7,7)" fill-rule="evenodd" />
<path d="
M 491.434 37.345
C 494.218 36.286 498.577 36.888 501.555 36.919
C 509.667 37.002 517.816 37.59 525.86 38.629
C 554.199 42.29 582.353 52.302 606.679 67.338
C 612.322 70.826 617.879 74.498 623.127 78.565
C 625.483 80.39 628.522 82.252 630.39 84.588
C 629.733 85.762 628.45 86.715 627.515 87.675
C 625.491 89.753 623.494 91.857 621.457 93.922
C 614.976 100.489 608.447 107.01 601.935 113.545
C 580.81 134.745 560.15 156.414 539.003 177.593
C 528.381 188.231 518.034 199.141 507.297 209.656
C 503.77 213.11 500.372 216.702 496.81 220.119
C 495.665 221.218 494.488 222.327 493.442 223.521
C 493.175 223.826 491.425 225.473 491.471 225.124
C 491.916 219.519 491.399 213.632 491.401 207.995
C 491.404 195.495 491.364 182.996 491.37 170.496
C 491.392 126.133 490.593 81.698 491.434 37.345 Z
M 520.296 90.7
C 520.384 93.166 520.328 95.732 520.163 98.193
C 522.849 98.315 526.25 97.655 528.811 98.495
C 529.843 99.687 529.335 101.975 529.157 103.403
C 528.46 108.983 525.759 113.361 520.796 116.072
C 520.835 117.273 521.722 118.593 522.156 119.709
C 522.798 121.361 523.098 123.337 524.037 124.842
C 528.1 122.994 531.56 120.887 536.215 121.019
C 539.761 121.12 543.172 122.293 546.611 123.035
C 552.112 124.221 557.901 124.877 563.384 123.208
C 563.719 122.741 563.147 121.379 563.016 120.796
C 562.527 118.619 562.61 116.129 561.661 114.088
C 554.873 116.34 549 113.666 542.241 113.219
C 540.521 113.105 538.701 113.109 536.993 113.372
C 535.908 113.538 534.757 114.176 533.656 114.061
C 537.657 109.621 539.397 104.48 538.817 98.457
C 543.309 97.598 548.282 98.405 552.852 98.204
C 553.577 96.037 552.857 92.692 552.945 90.393
C 551.216 89.959 548.913 90.33 547.121 90.368
C 543.795 90.438 540.467 90.311 537.145 90.366
C 536.154 89.348 536.054 86.782 535.817 85.401
C 535.28 82.268 535.049 78.994 536.547 76.062
C 538.776 71.699 545.394 70.32 549.213 73.413
C 550.825 74.719 552.075 76.68 553.008 78.517
C 555.666 78.024 558.184 75.945 560.863 75.227
C 560.955 74.801 560.467 74.143 560.287 73.747
C 559.492 72.001 558.578 70.41 557.326 68.948
C 552.212 62.976 543.003 61.718 535.884 64.573
C 528.087 67.701 524.93 75.606 525.321 83.509
C 525.442 85.966 526.625 88.269 526.789 90.634
C 524.618 90.645 522.465 90.574 520.296 90.7 Z"
opacity="1" fill="rgb(49,112,174)" fill-rule="evenodd" />
<path d="
M 497.751 239.147
C 539.509 197.647 580.422 155.254 621.905 113.468
C 633.012 102.278 643.8 90.692 655.1 79.713
C 656.179 79.887 657.189 80.898 658.116 81.47
C 660.658 83.041 663.159 84.678 665.647 86.333
C 675.005 92.558 683.79 99.782 691.933 107.519
C 727.842 141.638 752.628 189.912 756.994 239.473
C 694.512 240.033 631.99 239.431 569.504 239.385
C 552.337 239.373 535.169 239.312 518.002 239.337
C 513.168 239.344 508.333 239.259 503.499 239.317
C 501.932 239.336 499.131 239.887 497.751 239.147 Z
M 627.801 202.019
C 627.725 202.212 627.649 202.404 627.574 202.597
C 628.453 204.108 630.689 205.27 632.194 206.121
C 637.482 209.114 642.734 209.647 648.472 211.008
C 648.535 213.328 648.405 215.677 648.393 218.002
C 648.388 218.781 648.173 220.122 648.493 220.808
C 650.798 220.674 653.101 220.803 655.404 220.733
C 655.583 217.476 655.278 214.163 655.43 210.892
C 656.578 209.816 659.674 209.954 661.222 209.45
C 664.709 208.315 667.778 206.103 670.082 203.267
C 674.476 197.859 675.279 188.93 671.178 183.112
C 667.937 178.513 660.976 174.691 655.427 173.858
C 654.836 172.345 655.228 169.867 655.213 168.237
C 655.169 163.734 655.388 159.185 655.19 154.692
C 658.277 154.834 661.273 155.809 664.039 157.176
C 665.093 157.697 667.142 159.561 668.271 159.418
C 668.937 156.859 671.238 154.25 671.423 151.614
C 666.182 148.803 661.412 146.268 655.287 146.085
C 655.326 143.111 654.978 140.05 655.219 137.094
C 652.968 137.043 650.742 136.817 648.487 136.991
C 648.544 139.049 648.423 141.139 648.395 143.202
C 648.384 144.089 648.6 145.286 648.319 146.115
C 643.583 146.679 639.246 147.865 635.486 150.968
C 628.867 156.43 627.698 166.991 632.99 173.738
C 635.498 176.936 639.412 178.888 643.145 180.295
C 644.826 180.928 647.065 181.324 648.454 182.502
C 647.839 188.939 649.572 195.886 648.356 202.251
C 647.046 202.381 645.58 201.817 644.328 201.481
C 641.154 200.626 638.016 199.485 635.207 197.74
C 634.141 197.077 631.602 194.348 630.41 194.786
C 629.96 197.317 628.922 199.72 627.801 202.019 Z"
opacity="1" fill="rgb(40,54,106)" fill-rule="evenodd" />
<path d="
M 573.264 852.254
C 575.843 852.22 578.42 852.288 580.998 852.267
C 581.567 852.262 583.018 851.987 583.313 852.495
C 583.697 856.944 583.411 861.537 583.435 866.001
C 583.485 875.168 583.455 884.335 583.464 893.501
C 583.471 901.447 583.44 909.393 583.438 917.339
C 583.437 921.673 583.851 926.171 583.452 930.468
C 584.459 929.817 585.144 928.491 586.004 927.637
C 588.508 925.15 590.904 922.557 593.367 920.028
C 600.815 912.379 608.311 904.795 615.679 897.072
C 618.283 894.341 620.938 891.595 623.43 888.762
C 624.333 887.735 625.585 885.545 626.916 885.135
C 628.514 884.644 630.633 884.889 632.283 884.897
C 635.106 884.91 638.082 884.625 640.886 884.923
C 640.453 885.924 638.949 886.886 638.153 887.67
C 636.088 889.702 634.04 891.74 632.031 893.829
C 627.118 898.936 622.156 903.989 617.159 909.015
C 614.076 912.116 610.678 915.127 607.969 918.558
C 613.651 924.587 618.018 932.115 622.922 938.775
C 630.282 948.77 638.182 958.617 644.962 969.011
C 643.916 969.333 642.136 968.933 640.998 968.921
C 638.114 968.89 634.969 969.259 632.12 968.837
C 630.754 968.017 629.871 966.108 628.944 964.839
C 626.843 961.966 624.732 959.101 622.644 956.218
C 617.846 949.594 613.228 942.84 608.426 936.219
C 605.965 932.825 603.715 929.265 600.923 926.127
C 599.019 927.172 597.377 929.885 595.845 931.455
C 591.882 935.517 587.923 939.616 583.708 943.417
C 583.463 948.922 583.608 954.488 583.614 959.999
C 583.616 962.745 583.138 966.074 583.701 968.752
C 580.36 968.921 576.978 968.624 573.633 968.644
C 572.86 942.128 573.415 915.519 573.446 888.994
C 573.455 880.994 573.415 872.994 573.411 864.994
C 573.408 860.834 573.856 856.369 573.264 852.254 Z"
opacity="1" fill="rgb(115,159,194)" fill-rule="evenodd" />
<path d="
M 590.472 314.476
C 595.661 317.613 600.532 321.337 605.674 324.575
C 616.203 331.203 626.771 337.769 637.275 344.434
C 641.312 346.996 645.36 349.547 649.374 352.143
C 650.621 352.949 652.874 355.11 654.422 354.977
C 654.068 357.018 654.501 359.353 654.534 361.431
C 654.6 365.645 654.542 369.86 654.548 374.074
C 654.569 387.547 654.56 401.02 654.547 414.492
C 654.505 457.165 654.54 499.828 654.53 542.492
C 654.525 563.159 654.372 583.825 654.369 604.494
C 654.368 610.828 654.347 617.161 654.354 623.494
C 654.357 625.917 653.667 629.542 654.298 631.827
C 650.109 632.239 645.705 631.876 641.495 631.875
C 633.162 631.873 624.829 631.875 616.495 631.886
C 610.662 631.894 604.828 631.879 598.994 631.874
C 596.187 631.872 593.013 632.255 590.249 631.789
C 589.709 622.92 590.102 613.884 590.121 604.997
C 590.157 588.83 590.218 572.664 590.222 556.498
C 590.235 504.92 590.415 453.341 590.406 401.763
C 590.402 381.682 590.724 361.589 590.655 341.501
C 590.635 335.56 590.595 329.619 590.567 323.678
C 590.554 320.652 590.995 317.41 590.472 314.476 Z"
opacity="1" fill="rgb(204,204,204)" fill-rule="evenodd" />
<path d="
M 603.817 707.275
C 610.102 707.047 616.498 707.078 622.785 707.251
C 623.399 708.544 622.916 710.953 622.929 712.402
C 622.963 716.071 623.144 719.631 623.393 723.281
C 623.793 723.515 624.254 722.716 624.438 722.446
C 625.163 721.382 625.986 720.414 626.771 719.397
C 628.768 716.809 631.156 714.526 633.861 712.68
C 641.904 707.193 652.362 704.646 662.043 705.421
C 666.012 705.739 669.807 706.566 673.546 707.935
C 676.467 709.005 679.134 710.526 681.693 712.28
C 696.522 722.442 696.33 741.538 696.33 757.499
C 696.33 761.332 696.331 765.166 696.332 768.999
C 696.333 775.332 696.324 781.665 696.323 787.998
C 696.322 794.553 696.096 801.152 696.33 807.701
C 689.61 807.188 682.453 807.342 675.723 807.666
C 675.524 791.522 675.602 775.366 675.576 759.216
C 675.563 750.816 676.477 741.156 671.692 733.746
C 665.563 724.251 653.059 722.608 642.96 726.267
C 636.741 728.52 631.674 733.194 628.432 738.857
C 623.283 747.85 623.753 757.479 623.792 767.5
C 623.844 780.806 623.952 794.114 623.821 807.418
C 621.817 807.693 619.536 807.385 617.505 807.366
C 613.006 807.324 608.493 807.232 603.995 807.38
C 603.029 806.489 603.694 802.365 603.691 801.006
C 603.679 794.673 603.726 788.339 603.743 782.005
C 603.786 765.838 603.827 749.67 603.876 733.503
C 603.903 724.816 604.437 715.942 603.817 707.275 Z"
opacity="1" fill="rgb(8,8,9)" fill-rule="evenodd" />
<path d="
M 639.977 162.104
C 640.562 158.221 644.084 154.159 648.409 154.828
C 648.324 158.979 648.485 163.159 648.506 167.314
C 648.51 168.234 648.88 171.039 648.359 171.691
C 647.447 171.702 646.247 170.918 645.441 170.514
C 642.08 168.829 639.771 166.073 639.977 162.104 Z"
opacity="1" fill="rgb(42,56,107)" fill-rule="evenodd" />
<path d="
M 650.471 924.611
C 650.866 921.381 651.004 918.229 651.878 915.062
C 654.225 906.553 659.413 897.923 666.089 892.103
C 669.709 888.948 674.312 886.983 678.826 885.495
C 694.03 880.481 711.061 883.492 722.6 895.029
C 729.52 901.949 733.238 912.043 734.096 921.678
C 734.38 924.859 733.917 928.077 734.144 931.248
C 716.263 931.204 698.38 931.351 680.498 931.373
C 675.998 931.378 671.498 931.373 666.998 931.4
C 665.647 931.408 662.743 930.91 661.659 931.736
C 661.995 935.707 662.511 939.279 664.261 942.924
C 671.123 957.209 688.834 964.034 703.808 960.013
C 709.087 958.596 714.078 956.017 718.631 953.031
C 720.155 952.031 721.317 950.351 722.95 949.576
C 724.5 951.207 726.093 952.794 727.615 954.455
C 728.041 954.918 729.129 955.805 728.951 956.475
C 727.527 958.624 725.075 960.454 722.974 961.897
C 717.948 965.35 712.763 967.907 706.808 969.327
C 695.916 971.925 684.347 971.204 674.177 966.278
C 659.159 959.003 649.643 941.06 650.471 924.611 Z
M 661.969 920.598
C 661.911 921.192 661.857 921.77 661.923 922.364
C 676.74 921.86 691.671 922.331 706.502 922.284
C 712.156 922.266 718.169 922.883 723.783 922.263
C 722.975 915.641 721.948 910.2 717.749 904.717
C 707.563 891.418 686.702 889.199 673.756 899.58
C 669.286 903.165 665.491 907.835 663.614 913.295
C 662.787 915.699 662.576 918.154 661.969 920.598 Z"
opacity="1" fill="rgb(115,160,193)" fill-rule="evenodd" />
<path d="
M 655.366 185.008
C 656.983 183.781 660.094 186.362 661.311 187.553
C 665.235 191.395 664.152 197.704 659.606 200.531
C 658.667 201.115 656.47 202.561 655.338 202.241
C 655.529 196.507 655.061 190.738 655.366 185.008 Z"
opacity="1" fill="rgb(44,55,107)" fill-rule="evenodd" />
<path d="
M 722.42 791.957
C 725.415 789.047 728.348 786.095 730.874 782.751
C 731.652 781.72 733.025 779.158 734.305 778.913
C 742.056 787.952 752.98 793.305 765.06 792.156
C 770.96 791.595 778.003 788.57 778.18 781.718
C 778.469 770.497 766.382 767.121 757.889 763.946
C 746.385 759.645 731.625 753.861 727.77 740.851
C 726.958 738.112 726.751 735.253 726.82 732.407
C 726.892 729.424 727.431 726.525 728.379 723.694
C 734.976 703.99 760.45 701.347 777.426 707.851
C 782.209 709.683 787.308 712.029 791.074 715.568
C 791.927 716.369 794.4 718.293 794.475 719.433
C 793.957 720.599 792.697 721.435 791.858 722.378
C 789.655 724.854 787.486 727.335 785.137 729.675
C 784.688 730.123 782.807 732.887 782.205 732.799
C 774.577 726.7 766.628 722.368 756.554 723.173
C 754.487 723.338 752.254 723.738 750.512 724.941
C 746.417 727.768 745.031 733.371 747.612 737.696
C 751.64 744.444 760.716 746.233 767.584 748.717
C 779.779 753.127 793.775 759.003 797.588 772.71
C 798.476 775.901 798.508 779.22 798.372 782.51
C 797.853 795.12 788.038 804.647 776.487 808.161
C 762.915 812.29 748.497 810.624 735.962 804.101
C 730.67 801.346 725.072 797.616 721.955 792.373
C 722.11 792.234 722.265 792.095 722.42 791.957 Z"
opacity="1" fill="rgb(8,8,9)" fill-rule="evenodd" />
<path d="
M 755.818 885.273
C 758.047 884.578 760.622 884.84 762.924 884.921
C 763.711 884.948 764.873 884.903 765.477 885.406
C 765.44 891.747 765.784 898.096 766.069 904.434
C 766.672 904.372 767.47 901.835 767.736 901.274
C 769.198 898.197 771.526 895.304 773.809 892.787
C 779.482 886.534 788.847 883.118 797.185 883.661
C 798.307 886.909 796.741 890.904 797.323 894.235
C 793.761 894.276 789.949 894.097 786.546 895.383
C 783.859 896.397 781.265 897.676 778.969 899.424
C 764.204 910.656 766.16 930.525 766.22 947.001
C 766.238 951.834 766.237 956.668 766.243 961.502
C 766.246 963.755 765.805 966.565 766.298 968.752
C 763.867 968.814 761.426 968.731 758.995 968.719
C 757.959 968.713 756.747 968.931 755.75 968.657
C 756.179 960.481 755.781 952.186 755.779 943.997
C 755.774 924.428 755.504 904.84 755.818 885.273 Z"
opacity="1" fill="rgb(116,158,192)" fill-rule="evenodd" />
<path d="
M 819.931 756.113
C 820.377 752.803 820.238 749.49 820.932 746.191
C 822.981 736.459 827.732 727.22 834.734 720.1
C 854.052 700.457 890.831 698.616 909.505 720.274
C 917.319 729.338 921.899 741.98 922.053 753.935
C 922.089 756.786 922.087 759.637 922.101 762.488
C 922.102 762.769 922.189 764.797 922.045 764.84
C 915.079 765.367 907.98 765.118 900.998 765.166
C 888.165 765.254 875.33 765.25 862.497 765.263
C 855.864 765.269 848.949 764.702 842.35 765.327
C 843.38 770.388 844.691 775.3 848.012 779.406
C 861.072 795.559 890.47 794.446 904.13 779.463
C 905.224 779.226 906.661 781.502 907.401 782.275
C 910.401 785.411 914.209 788.506 916.76 791.994
C 915.543 794.104 912.822 796.068 910.977 797.634
C 904.4 803.215 896.543 806.891 888.163 808.837
C 861.542 815.017 831.545 802.209 822.58 775.263
C 820.533 769.112 819.715 762.585 819.931 756.113 Z
M 842.43 747.573
C 842.338 748.178 842.053 748.891 842.544 749.313
C 856.965 748.569 871.556 749.121 885.996 749.103
C 890.874 749.097 896.036 749.64 900.882 749.184
C 901.201 746.623 900.014 743.232 899.081 740.891
C 895.085 730.866 885.759 724.794 875.017 724.363
C 863.854 723.915 852.894 728.014 846.432 737.493
C 844.266 740.67 843.488 743.962 842.43 747.573 Z"
opacity="1" fill="rgb(197,199,203)" fill-rule="evenodd" />

</svg>